testOutput_kerning_muted.ufo
<glyph name="numbersign" format="1">
  <advance width="362"/>
  <unicode hex="0023"/>
  <outline>
    <contour>
      <point x="184" y="209" type="line"/>
      <point x="156" y="0" type="line"/>
      <point x="239" y="0" type="line"/>
      <point x="267" y="209" type="line"/>
      <point x="325" y="209" type="line"/>
      <point x="337" y="291" type="line"/>
      <point x="277" y="291" type="line"/>
      <point x="295" y="416" type="line"/>
      <point x="353" y="416" type="line"/>
      <point x="364" y="497" type="line"/>
      <point x="305" y="497" type="line"/>
      <point x="332" y="700" type="line"/>
      <point x="249" y="700" type="line"/>
      <point x="222" y="497" type="line"/>
      <point x="179" y="497" type="line"/>
      <point x="205" y="700" type="line"/>
      <point x="122" y="700" type="line"/>
      <point x="96" y="497" type="line"/>
      <point x="37" y="497" type="line"/>
      <point x="26" y="416" type="line"/>
      <point x="85" y="416" type="line"/>
      <point x="68" y="291" type="line"/>
      <point x="10" y="291" type="line"/>
      <point x="-2" y="209" type="line"/>
      <point x="57" y="209" type="line"/>
      <point x="30" y="0" type="line"/>
      <point x="113" y="0" type="line"/>
      <point x="140" y="209" type="line"/>
    </contour>
    <contour>
      <point x="194" y="291" type="line"/>
      <point x="151" y="291" type="line"/>
      <point x="168" y="416" type="line"/>
      <point x="212" y="416" type="line"/>
    </contour>
  </outline>
</glyph>
<glyph name="percent" format="1">
  <advance width="560"/>
  <unicode hex="0025"/>
  <outline>
    <contour>
      <point x="256" y="529" type="line"/>
      <point x="256" y="657"/>
      <point x="201" y="711"/>
      <point x="130" y="711" type="curve" smooth="yes"/>
      <point x="60" y="711"/>
      <point x="5" y="657"/>
      <point x="5" y="529" type="curve" smooth="yes"/>
      <point x="5" y="400"/>
      <point x="64" y="347"/>
      <point x="130" y="347" type="curve" smooth="yes"/>
      <point x="196" y="347"/>
      <point x="256" y="399"/>
      <point x="256" y="528" type="curve"/>
    </contour>
    <contour>
      <point x="460" y="703" type="line"/>
      <point x="360" y="703" type="line"/>
      <point x="98" y="-5" type="line"/>
      <point x="198" y="-5" type="line"/>
    </contour>
    <contour>
      <point x="130" y="417" type="line"/>
      <point x="112" y="417"/>
      <point x="110" y="460"/>
      <point x="110" y="529" type="curve" smooth="yes"/>
      <point x="110" y="597"/>
      <point x="112" y="641"/>
      <point x="130" y="641" type="curve" smooth="yes"/>
      <point x="149" y="641"/>
      <point x="150" y="597"/>
      <point x="150" y="529" type="curve" smooth="yes"/>
      <point x="150" y="460"/>
      <point x="148" y="417"/>
      <point x="131" y="417" type="curve"/>
    </contour>
    <contour>
      <point x="555" y="169" type="line"/>
      <point x="555" y="297"/>
      <point x="500" y="351"/>
      <point x="430" y="351" type="curve" smooth="yes"/>
      <point x="359" y="351"/>
      <point x="304" y="297"/>
      <point x="304" y="169" type="curve" smooth="yes"/>
      <point x="304" y="40"/>
      <point x="363" y="-13"/>
      <point x="430" y="-13" type="curve" smooth="yes"/>
      <point x="495" y="-13"/>
      <point x="555" y="39"/>
      <point x="555" y="168" type="curve"/>
    </contour>
    <contour>
      <point x="430" y="57" type="line"/>
      <point x="411" y="57"/>
      <point x="410" y="100"/>
      <point x="410" y="169" type="curve" smooth="yes"/>
      <point x="410" y="237"/>
      <point x="411" y="281"/>
      <point x="430" y="281" type="curve" smooth="yes"/>
      <point x="448" y="281"/>
      <point x="450" y="237"/>
      <point x="450" y="169" type="curve" smooth="yes"/>
      <point x="450" y="100"/>
      <point x="448" y="57"/>
      <point x="431" y="57" type="curve"/>
    </contour>
  </outline>
</glyph>
<glyph name="ampersand" format="1">
  <advance width="373"/>
  <unicode hex="0026"/>
  <outline>
    <contour>
      <point x="384" y="0" type="line"/>
      <point x="366" y="32"/>
      <point x="345" y="75"/>
      <point x="324" y="121" type="curve"/>
      <point x="352" y="183"/>
      <point x="371" y="252"/>
      <point x="370" y="354" type="curve"/>
      <point x="273" y="354" type="line"/>
      <point x="273" y="295"/>
      <point x="271" y="251"/>
      <point x="268" y="215" type="curve"/>
      <point x="256" y="250"/>
      <point x="236" y="315"/>
      <point x="223" y="360" type="curve"/>
      <point x="272" y="420"/>
      <point x="300" y="471"/>
      <point x="300" y="542" type="curve" smooth="yes"/>
      <point x="300" y="641"/>
      <point x="226" y="674"/>
      <point x="181" y="674" type="curve" smooth="yes"/>
      <point x="89" y="674"/>
      <point x="49" y="611"/>
      <point x="49" y="535" type="curve" smooth="yes"/>
      <point x="49" y="473"/>
      <point x="66" y="423"/>
      <point x="96" y="364" type="curve"/>
      <point x="43" y="308"/>
      <point x="10" y="248"/>
      <point x="10" y="165" type="curve" smooth="yes"/>
      <point x="10" y="60"/>
      <point x="53" y="-14"/>
      <point x="144" y="-14" type="curve" smooth="yes"/>
      <point x="204" y="-14"/>
      <point x="227" y="13"/>
      <point x="245" y="40" type="curve"/>
      <point x="247" y="40" type="line"/>
      <point x="251" y="25"/>
      <point x="255" y="13"/>
      <point x="260" y="0" type="curve"/>
    </contour>
    <contour>
      <point x="161" y="536" type="line"/>
      <point x="161" y="581"/>
      <point x="170" y="596"/>
      <point x="182" y="596" type="curve" smooth="yes"/>
      <point x="194" y="596"/>
      <point x="202" y="572"/>
      <point x="202" y="540" type="curve" smooth="yes"/>
      <point x="202" y="505"/>
      <point x="189" y="462"/>
      <point x="179" y="436" type="curve"/>
      <point x="168" y="467"/>
      <point x="161" y="498"/>
      <point x="161" y="535" type="curve"/>
    </contour>
    <contour>
      <point x="133" y="158" type="line"/>
      <point x="133" y="205"/>
      <point x="141" y="239"/>
      <point x="149" y="268" type="curve"/>
      <point x="166" y="211"/>
      <point x="185" y="155"/>
      <point x="201" y="110" type="curve"/>
      <point x="194" y="84"/>
      <point x="185" y="66"/>
      <point x="168" y="66" type="curve" smooth="yes"/>
      <point x="144" y="66"/>
      <point x="133" y="107"/>
      <point x="133" y="157" type="curve"/>
    </contour>
  </outline>
</glyph>
<glyph name="parenleft" format="1">
  <advance width="198"/>
  <unicode hex="0028"/>
  <outline>
    <contour>
      <point x="225" y="-115" type="line"/>
      <point x="199" y="-69"/>
      <point x="181" y="-27"/>
      <point x="170" y="26" type="curve" smooth="yes"/>
      <point x="154" y="109"/>
      <point x="153" y="193"/>
      <point x="153" y="291" type="curve" smooth="yes"/>
      <point x="153" y="410"/>
      <point x="159" y="492"/>
      <point x="171" y="557" type="curve" smooth="yes"/>
      <point x="183" y="613"/>
      <point x="201" y="654"/>
      <point x="226" y="697" type="curve"/>
      <point x="179" y="766" type="line"/>
      <point x="147" y="728"/>
      <point x="105" y="679"/>
      <point x="73" y="611" type="curve" smooth="yes"/>
      <point x="41" y="532"/>
      <point x="17" y="431"/>
      <point x="16" y="291" type="curve" smooth="yes"/>
      <point x="15" y="152"/>
      <point x="39" y="50"/>
      <point x="73" y="-28" type="curve" smooth="yes"/>
      <point x="104" y="-97"/>
      <point x="146" y="-146"/>
      <point x="178" y="-184" type="curve"/>
    </contour>
  </outline>
</glyph>
<glyph name="period" format="1">
  <advance width="147"/>
  <unicode hex="002E"/>
  <outline>
    <contour>
      <point x="10" y="137" type="line"/>
      <point x="10" y="0" type="line"/>
      <point x="137" y="0" type="line"/>
      <point x="137" y="137" type="line"/>
    </contour>
  </outline>
</glyph>
<glyph name="zero" format="1">
  <advance width="334"/>
  <unicode hex="0030"/>
  <outline>
    <contour>
      <point x="15" y="346" type="line"/>
      <point x="15" y="76"/>
      <point x="69" y="-13"/>
      <point x="167" y="-13" type="curve" smooth="yes"/>
      <point x="274" y="-13"/>
      <point x="320" y="92"/>
      <point x="320" y="346" type="curve" smooth="yes"/>
      <point x="320" y="596"/>
      <point x="276" y="705"/>
      <point x="167" y="705" type="curve" smooth="yes"/>
      <point x="60" y="705"/>
      <point x="15" y="600"/>
      <point x="15" y="347" type="curve"/>
    </contour>
    <contour>
      <point x="167" y="611" type="line"/>
      <point x="187" y="611"/>
      <point x="190" y="537"/>
      <point x="190" y="347" type="curve" smooth="yes"/>
      <point x="190" y="133"/>
      <point x="182" y="81"/>
      <point x="167" y="81" type="curve" smooth="yes"/>
      <point x="152" y="81"/>
      <point x="144" y="128"/>
      <point x="144" y="347" type="curve" smooth="yes"/>
      <point x="144" y="541"/>
      <point x="147" y="611"/>
      <point x="166" y="611" type="curve"/>
    </contour>
  </outline>
</glyph>
<glyph name="one" format="1">
  <advance width="261"/>
  <unicode hex="0031"/>
  <outline>
    <contour>
      <point x="-19" y="585" type="line"/>
      <point x="30" y="492" type="line"/>
      <point x="106" y="537" type="line"/>
      <point x="106" y="0" type="line"/>
      <point x="233" y="0" type="line"/>
      <point x="233" y="698" type="line"/>
      <point x="165" y="698" type="line"/>
    </contour>
  </outline>
</glyph>
<glyph name="two" format="1">
  <advance width="322"/>
  <unicode hex="0032"/>
  <outline>
    <contour>
      <point x="313" y="107" type="line"/>
      <point x="136" y="107" type="line"/>
      <point x="171" y="270"/>
      <point x="313" y="322"/>
      <point x="313" y="522" type="curve" smooth="yes"/>
      <point x="313" y="612"/>
      <point x="273" y="705"/>
      <point x="156" y="705" type="curve" smooth="yes"/>
      <point x="27" y="705"/>
      <point x="0" y="596"/>
      <point x="3" y="515" type="curve"/>
      <point x="126" y="515" type="line"/>
      <point x="125" y="572"/>
      <point x="130" y="611"/>
      <point x="153" y="611" type="curve" smooth="yes"/>
      <point x="176" y="611"/>
      <point x="183" y="562"/>
      <point x="183" y="519" type="curve" smooth="yes"/>
      <point x="183" y="371"/>
      <point x="26" y="290"/>
      <point x="1" y="9" type="curve"/>
      <point x="13" y="0" type="line"/>
      <point x="313" y="0" type="line"/>
    </contour>
  </outline>
</glyph>
<glyph name="five" format="1">
  <advance width="331"/>
  <unicode hex="0035"/>
  <outline>
    <contour>
      <point x="26" y="320" type="line"/>
      <point x="138" y="307" type="line"/>
      <point x="142" y="336"/>
      <point x="150" y="356"/>
      <point x="160" y="356" type="curve" smooth="yes"/>
      <point x="180" y="356"/>
      <point x="190" y="311"/>
      <point x="190" y="216" type="curve" smooth="yes"/>
      <point x="190" y="113"/>
      <point x="176" y="77"/>
      <point x="160" y="77" type="curve" smooth="yes"/>
      <point x="141" y="77"/>
      <point x="135" y="120"/>
      <point x="137" y="186" type="curve"/>
      <point x="13" y="187" type="line"/>
      <point x="10" y="67"/>
      <point x="58" y="-12"/>
      <point x="162" y="-12" type="curve" smooth="yes"/>
      <point x="250" y="-12"/>
      <point x="319" y="52"/>
      <point x="319" y="223" type="curve" smooth="yes"/>
      <point x="319" y="368"/>
      <point x="284" y="449"/>
      <point x="210" y="449" type="curve" smooth="yes"/>
      <point x="183" y="449"/>
      <point x="162" y="433"/>
      <point x="150" y="416" type="curve"/>
      <point x="148" y="416" type="line"/>
      <point x="168" y="591" type="line"/>
      <point x="291" y="591" type="line"/>
      <point x="301" y="692" type="line"/>
      <point x="65" y="692" type="line"/>
    </contour>
  </outline>
</glyph>
<glyph name="six" format="1">
  <advance width="331"/>
  <unicode hex="0036"/>
  <outline>
    <contour>
      <point x="139" y="391" type="line"/>
      <point x="139" y="578"/>
      <point x="156" y="611"/>
      <point x="171" y="611" type="curve" smooth="yes"/>
      <point x="187" y="611"/>
      <point x="190" y="573"/>
      <point x="189" y="534" type="curve"/>
      <point x="311" y="533" type="line"/>
      <point x="315" y="652"/>
      <point x="258" y="705"/>
      <point x="176" y="705" type="curve" smooth="yes"/>
      <point x="22" y="705"/>
      <point x="9" y="537"/>
      <point x="9" y="337" type="curve" smooth="yes"/>
      <point x="9" y="19"/>
      <point x="118" y="-12"/>
      <point x="174" y="-12" type="curve" smooth="yes"/>
      <point x="292" y="-12"/>
      <point x="328" y="100"/>
      <point x="328" y="225" type="curve" smooth="yes"/>
      <point x="328" y="367"/>
      <point x="280" y="439"/>
      <point x="215" y="439" type="curve" smooth="yes"/>
      <point x="180" y="439"/>
      <point x="158" y="420"/>
      <point x="142" y="391" type="curve"/>
    </contour>
    <contour>
      <point x="140" y="253" type="line"/>
      <point x="140" y="300"/>
      <point x="152" y="345"/>
      <point x="170" y="345" type="curve" smooth="yes"/>
      <point x="189" y="345"/>
      <point x="198" y="283"/>
      <point x="198" y="212" type="curve" smooth="yes"/>
      <point x="198" y="146"/>
      <point x="196" y="82"/>
      <point x="171" y="82" type="curve" smooth="yes"/>
      <point x="152" y="82"/>
      <point x="140" y="150"/>
      <point x="140" y="252" type="curve"/>
    </contour>
  </outline>
</glyph>
<glyph name="nine" format="1">
  <advance width="333"/>
  <unicode hex="0039"/>
  <outline>
    <contour>
      <point x="195" y="302" type="line"/>
      <point x="195" y="131"/>
      <point x="182" y="82"/>
      <point x="163" y="82" type="curve" smooth="yes"/>
      <point x="140" y="82"/>
      <point x="139" y="125"/>
      <point x="140" y="175" type="curve"/>
      <point x="18" y="177" type="line"/>
      <point x="13" y="56"/>
      <point x="57" y="-12"/>
      <point x="156" y="-12" type="curve" smooth="yes"/>
      <point x="300" y="-12"/>
      <point x="324" y="169"/>
      <point x="324" y="364" type="curve" smooth="yes"/>
      <point x="324" y="631"/>
      <point x="250" y="705"/>
      <point x="160" y="705" type="curve" smooth="yes"/>
      <point x="43" y="705"/>
      <point x="5" y="596"/>
      <point x="5" y="468" type="curve" smooth="yes"/>
      <point x="5" y="378"/>
      <point x="26" y="254"/>
      <point x="118" y="254" type="curve" smooth="yes"/>
      <point x="158" y="254"/>
      <point x="178" y="284"/>
      <point x="192" y="302" type="curve"/>
    </contour>
    <contour>
      <point x="192" y="434" type="line"/>
      <point x="192" y="395"/>
      <point x="182" y="348"/>
      <point x="162" y="348" type="curve" smooth="yes"/>
      <point x="142" y="348"/>
      <point x="136" y="416"/>
      <point x="136" y="481" type="curve" smooth="yes"/>
      <point x="136" y="563"/>
      <point x="142" y="611"/>
      <point x="161" y="611" type="curve" smooth="yes"/>
      <point x="177" y="611"/>
      <point x="192" y="566"/>
      <point x="192" y="435" type="curve"/>
    </contour>
  </outline>
</glyph>
<glyph name="colon" format="1">
  <advance width="147"/>
  <unicode hex="003A"/>
  <outline>
    <contour>
      <point x="10" y="493" type="line"/>
      <point x="10" y="356" type="line"/>
      <point x="137" y="356" type="line"/>
      <point x="137" y="493" type="line"/>
    </contour>
    <contour>
      <point x="10" y="137" type="line"/>
      <point x="10" y="0" type="line"/>
      <point x="137" y="0" type="line"/>
      <point x="137" y="137" type="line"/>
    </contour>
  </outline>
</glyph>
<glyph name="question" format="1">
  <advance width="299"/>
  <unicode hex="003F"/>
  <outline>
    <contour>
      <point x="203" y="215" type="line"/>
      <point x="201" y="261"/>
      <point x="209" y="317"/>
      <point x="241" y="370" type="curve" smooth="yes"/>
      <point x="279" y="428"/>
      <point x="305" y="479"/>
      <point x="305" y="559" type="curve" smooth="yes"/>
      <point x="305" y="630"/>
      <point x="268" y="717"/>
      <point x="157" y="717" type="curve" smooth="yes"/>
      <point x="46" y="717"/>
      <point x="-4" y="637"/>
      <point x="-2" y="526" type="curve"/>
      <point x="128" y="526" type="line"/>
      <point x="127" y="588"/>
      <point x="133" y="632"/>
      <point x="153" y="632" type="curve" smooth="yes"/>
      <point x="166" y="632"/>
      <point x="176" y="612"/>
      <point x="176" y="552" type="curve" smooth="yes"/>
      <point x="176" y="508"/>
      <point x="165" y="477"/>
      <point x="141" y="419" type="curve" smooth="yes"/>
      <point x="98" y="328"/>
      <point x="93" y="268"/>
      <point x="98" y="215" type="curve"/>
    </contour>
    <contour>
      <point x="87" y="137" type="line"/>
      <point x="87" y="0" type="line"/>
      <point x="214" y="0" type="line"/>
      <point x="214" y="137" type="line"/>
    </contour>
  </outline>
</glyph>
<glyph name="at" format="1">
  <advance width="511"/>
  <unicode hex="0040"/>
  <outline>
    <contour>
      <point x="372" y="163" type="line"/>
      <point x="340" y="151"/>
      <point x="306" y="140"/>
      <point x="255" y="140" type="curve" smooth="yes"/>
      <point x="170" y="140"/>
      <point x="87" y="195"/>
      <point x="87" y="315" type="curve" smooth="yes"/>
      <point x="87" y="376"/>
      <point x="109" y="432"/>
      <point x="146" y="474" type="curve" smooth="yes"/>
      <point x="182" y="515"/>
      <point x="234" y="542"/>
      <point x="292" y="542" type="curve" smooth="yes"/>
      <point x="340" y="542"/>
      <point x="375" y="530"/>
      <point x="400" y="507" type="curve" smooth="yes"/>
      <point x="422" y="486"/>
      <point x="435" y="454"/>
      <point x="435" y="413" type="curve" smooth="yes"/>
      <point x="435" y="375"/>
      <point x="424" y="337"/>
      <point x="404" y="305" type="curve" smooth="yes"/>
      <point x="390" y="279"/>
      <point x="374" y="265"/>
      <point x="361" y="266" type="curve" smooth="yes"/>
      <point x="344" y="265"/>
      <point x="344" y="278"/>
      <point x="354" y="313" type="curve" smooth="yes"/>
      <point x="399" y="483" type="line"/>
      <point x="323" y="483" type="line"/>
      <point x="319" y="464" type="line"/>
      <point x="317" y="464" type="line"/>
      <point x="309" y="479"/>
      <point x="294" y="485"/>
      <point x="271" y="485" type="curve" smooth="yes"/>
      <point x="242" y="485"/>
      <point x="211" y="472"/>
      <point x="178" y="432" type="curve" smooth="yes"/>
      <point x="144" y="391"/>
      <point x="128" y="342"/>
      <point x="128" y="290" type="curve" smooth="yes"/>
      <point x="128" y="237"/>
      <point x="153" y="203"/>
      <point x="193" y="203" type="curve" smooth="yes"/>
      <point x="231" y="203"/>
      <point x="266" y="237"/>
      <point x="276" y="264" type="curve"/>
      <point x="279" y="264" type="line"/>
      <point x="276" y="248"/>
      <point x="281" y="231"/>
      <point x="289" y="221" type="curve" smooth="yes"/>
      <point x="302" y="208"/>
      <point x="319" y="203"/>
      <point x="343" y="203" type="curve" smooth="yes"/>
      <point x="376" y="203"/>
      <point x="415" y="217"/>
      <point x="453" y="257" type="curve" smooth="yes"/>
      <point x="488" y="295"/>
      <point x="509" y="349"/>
      <point x="509" y="411" type="curve" smooth="yes"/>
      <point x="509" y="521"/>
      <point x="443" y="611"/>
      <point x="294" y="611" type="curve" smooth="yes"/>
      <point x="121" y="611"/>
      <point x="4" y="475"/>
      <point x="4" y="323" type="curve" smooth="yes"/>
      <point x="4" y="151"/>
      <point x="124" y="71"/>
      <point x="243" y="71" type="curve" smooth="yes"/>
      <point x="306" y="71"/>
      <point x="366" y="86"/>
      <point x="403" y="114" type="curve"/>
    </contour>
    <contour>
      <point x="215" y="313" type="line"/>
      <point x="215" y="339"/>
      <point x="228" y="375"/>
      <point x="245" y="398" type="curve"/>
      <point x="260" y="419"/>
      <point x="274" y="424"/>
      <point x="286" y="424" type="curve" smooth="yes"/>
      <point x="299" y="424"/>
      <point x="304" y="418"/>
      <point x="304" y="410" type="curve" smooth="yes"/>
      <point x="304" y="405"/>
      <point x="294" y="372"/>
      <point x="288" y="351" type="curve" smooth="yes"/>
      <point x="281" y="326"/>
      <point x="254" y="286"/>
      <point x="230" y="286" type="curve" smooth="yes"/>
      <point x="217" y="286"/>
      <point x="215" y="296"/>
      <point x="215" y="312" type="curve"/>
    </contour>
  </outline>
</glyph>
<glyph name="A" format="1">
  <advance width="312"/>
  <unicode hex="0041"/>
  <outline>
    <contour>
      <point x="178" y="187" type="line"/>
      <point x="191" y="0" type="line"/>
      <point x="320" y="0" type="line"/>
      <point x="246" y="709" type="line"/>
      <point x="66" y="709" type="line"/>
      <point x="-4" y="0" type="line"/>
      <point x="125" y="0" type="line"/>
      <point x="135" y="187" type="line"/>
    </contour>
    <contour>
      <point x="178" y="282" type="line"/>
      <point x="134" y="282" type="line"/>
      <point x="144" y="451" type="line"/>
      <point x="148" y="502"/>
      <point x="150" y="553"/>
      <point x="153" y="621" type="curve"/>
      <point x="159" y="621" type="line"/>
      <point x="161" y="553"/>
      <point x="165" y="505"/>
      <point x="168" y="452" type="curve" smooth="yes"/>
    </contour>
  </outline>
</glyph>
<glyph name="K" format="1">
  <advance width="365"/>
  <unicode hex="004B"/>
  <outline>
    <contour>
      <point x="149" y="386" type="line"/>
      <point x="151" y="435"/>
      <point x="151" y="473"/>
      <point x="151" y="533" type="curve" smooth="yes"/>
      <point x="151" y="709" type="line"/>
      <point x="18" y="709" type="line"/>
      <point x="18" y="0" type="line"/>
      <point x="151" y="0" type="line"/>
      <point x="151" y="207" type="line"/>
      <point x="169" y="275" type="line"/>
      <point x="239" y="0" type="line"/>
      <point x="378" y="0" type="line"/>
      <point x="243" y="401" type="line"/>
      <point x="364" y="709" type="line"/>
      <point x="235" y="709" type="line"/>
      <point x="187" y="532" type="line"/>
      <point x="171" y="472"/>
      <point x="162" y="438"/>
      <point x="153" y="386" type="curve"/>
    </contour>
  </outline>
</glyph>
<glyph name="M" format="1">
  <advance width="486"/>
  <unicode hex="004D"/>
  <outline>
    <contour>
      <point x="241" y="165" type="line"/>
      <point x="240" y="286"/>
      <point x="230" y="436"/>
      <point x="205" y="709" type="curve"/>
      <point x="18" y="709" type="line"/>
      <point x="18" y="0" type="line"/>
      <point x="133" y="0" type="line"/>
      <point x="133" y="283"/>
      <point x="132" y="476"/>
      <point x="126" y="583" type="curve"/>
      <point x="129" y="583" type="line"/>
      <point x="135" y="476"/>
      <point x="151" y="284"/>
      <point x="175" y="0" type="curve"/>
      <point x="310" y="0" type="line"/>
      <point x="336" y="287"/>
      <point x="351" y="477"/>
      <point x="356" y="583" type="curve"/>
      <point x="359" y="583" type="line"/>
      <point x="355" y="476"/>
      <point x="353" y="284"/>
      <point x="353" y="0" type="curve"/>
      <point x="468" y="0" type="line"/>
      <point x="468" y="709" type="line"/>
      <point x="280" y="709" type="line"/>
      <point x="254" y="438"/>
      <point x="246" y="287"/>
      <point x="245" y="165" type="curve"/>
    </contour>
  </outline>
</glyph>
<glyph name="Q" format="1">
  <advance width="354"/>
  <unicode hex="0051"/>
  <outline>
    <contour>
      <point x="291" y="49" type="line"/>
      <point x="324" y="106"/>
      <point x="339" y="205"/>
      <point x="339" y="355" type="curve" smooth="yes"/>
      <point x="339" y="617"/>
      <point x="292" y="723"/>
      <point x="177" y="723" type="curve" smooth="yes"/>
      <point x="62" y="723"/>
      <point x="15" y="617"/>
      <point x="15" y="355" type="curve" smooth="yes"/>
      <point x="15" y="92"/>
      <point x="62" y="-14"/>
      <point x="177" y="-14" type="curve" smooth="yes"/>
      <point x="195" y="-14"/>
      <point x="212" y="-10"/>
      <point x="225" y="1" type="curve"/>
      <point x="287" y="-119" type="line"/>
      <point x="373" y="-53" type="line"/>
    </contour>
    <contour>
      <point x="177" y="628" type="line"/>
      <point x="196" y="628"/>
      <point x="203" y="574"/>
      <point x="203" y="353" type="curve" smooth="yes"/>
      <point x="203" y="135"/>
      <point x="196" y="81"/>
      <point x="177" y="81" type="curve" smooth="yes"/>
      <point x="158" y="81"/>
      <point x="151" y="135"/>
      <point x="151" y="353" type="curve" smooth="yes"/>
      <point x="151" y="574"/>
      <point x="158" y="628"/>
      <point x="176" y="628" type="curve"/>
    </contour>
  </outline>
</glyph>
<glyph name="R" format="1">
  <advance width="351"/>
  <unicode hex="0052"/>
  <outline>
    <contour>
      <point x="365" y="0" type="line"/>
      <point x="229" y="0" type="line"/>
      <point x="151" y="289" type="line"/>
      <point x="151" y="289" type="line"/>
      <point x="151" y="0" type="line"/>
      <point x="18" y="0" type="line"/>
      <point x="18" y="709" type="line"/>
      <point x="140" y="709" type="line"/>
      <point x="237" y="709"/>
      <point x="332" y="668"/>
      <point x="332" y="496" type="curve" smooth="yes"/>
      <point x="332" y="371"/>
      <point x="283" y="330"/>
      <point x="250" y="315" type="curve"/>
    </contour>
    <contour>
      <point x="149" y="381" type="line"/>
      <point x="166" y="381"/>
      <point x="181" y="396"/>
      <point x="181" y="447" type="curve"/>
      <point x="193" y="499"/>
      <point x="184" y="528"/>
      <point x="168" y="562" type="curve" smooth="yes"/>
      <point x="168" y="594"/>
      <point x="164" y="614"/>
      <point x="150" y="614" type="curve" smooth="yes"/>
      <point x="150" y="480" type="line"/>
    </contour>
  </outline>
</glyph>
<glyph name="S" format="1">
  <advance width="328"/>
  <unicode hex="0053"/>
  <outline>
    <contour>
      <point x="315" y="555" type="line"/>
      <point x="316" y="646"/>
      <point x="277" y="723"/>
      <point x="170" y="723" type="curve" smooth="yes"/>
      <point x="117" y="723"/>
      <point x="81" y="700"/>
      <point x="55" y="668" type="curve" smooth="yes"/>
      <point x="29" y="638"/>
      <point x="16" y="597"/>
      <point x="16" y="552" type="curve" smooth="yes"/>
      <point x="16" y="500"/>
      <point x="30" y="455"/>
      <point x="45" y="423" type="curve" smooth="yes"/>
      <point x="62" y="391"/>
      <point x="88" y="356"/>
      <point x="115" y="318" type="curve" smooth="yes"/>
      <point x="144" y="279"/>
      <point x="157" y="259"/>
      <point x="167" y="242" type="curve" smooth="yes"/>
      <point x="179" y="219"/>
      <point x="187" y="195"/>
      <point x="187" y="163" type="curve" smooth="yes"/>
      <point x="187" y="145"/>
      <point x="186" y="124"/>
      <point x="182" y="111" type="curve" smooth="yes"/>
      <point x="179" y="98"/>
      <point x="171" y="81"/>
      <point x="158" y="81" type="curve" smooth="yes"/>
      <point x="131" y="81"/>
      <point x="130" y="122"/>
      <point x="131" y="163" type="curve"/>
      <point x="6" y="163" type="line"/>
      <point x="4" y="62"/>
      <point x="45" y="-14"/>
      <point x="164" y="-14" type="curve" smooth="yes"/>
      <point x="231" y="-14"/>
      <point x="266" y="24"/>
      <point x="288" y="56" type="curve" smooth="yes"/>
      <point x="314" y="92"/>
      <point x="323" y="139"/>
      <point x="323" y="180" type="curve" smooth="yes"/>
      <point x="323" y="239"/>
      <point x="302" y="281"/>
      <point x="286" y="312" type="curve" smooth="yes"/>
      <point x="272" y="337"/>
      <point x="251" y="362"/>
      <point x="225" y="401" type="curve" smooth="yes"/>
      <point x="204" y="433"/>
      <point x="194" y="451"/>
      <point x="175" y="476" type="curve" smooth="yes"/>
      <point x="154" y="502"/>
      <point x="149" y="532"/>
      <point x="149" y="561" type="curve" smooth="yes"/>
      <point x="149" y="576"/>
      <point x="150" y="593"/>
      <point x="154" y="604" type="curve" smooth="yes"/>
      <point x="157" y="617"/>
      <point x="163" y="628"/>
      <point x="173" y="628" type="curve" smooth="yes"/>
      <point x="196" y="628"/>
      <point x="198" y="588"/>
      <point x="197" y="556" type="curve"/>
    </contour>
  </outline>
</glyph>
<glyph name="U" format="1">
  <advance width="353"/>
  <unicode hex="0055"/>
  <outline>
    <contour>
      <point x="337" y="709" type="line"/>
      <point x="204" y="709" type="line"/>
      <point x="204" y="180" type="line"/>
      <point x="204" y="121"/>
      <point x="201" y="81"/>
      <point x="176" y="81" type="curve" smooth="yes"/>
      <point x="152" y="81"/>
      <point x="149" y="122"/>
      <point x="149" y="180" type="curve" smooth="yes"/>
      <point x="149" y="709" type="line"/>
      <point x="16" y="709" type="line"/>
      <point x="16" y="169" type="line"/>
      <point x="16" y="69"/>
      <point x="33" y="-14"/>
      <point x="175" y="-14" type="curve" smooth="yes"/>
      <point x="323" y="-14"/>
      <point x="337" y="74"/>
      <point x="337" y="167" type="curve" smooth="yes"/>
    </contour>
  </outline>
</glyph>
<glyph name="V" format="1">
  <advance width="326"/>
  <unicode hex="0056"/>
  <outline>
    <contour>
      <point x="160" y="86" type="line"/>
      <point x="156" y="180"/>
      <point x="152" y="246"/>
      <point x="148" y="313" type="curve" smooth="yes"/>
      <point x="126" y="709" type="line"/>
      <point x="-4" y="709" type="line"/>
      <point x="78" y="0" type="line"/>
      <point x="249" y="0" type="line"/>
      <point x="331" y="709" type="line"/>
      <point x="200" y="709" type="line"/>
      <point x="179" y="315" type="line"/>
      <point x="174" y="248"/>
      <point x="170" y="180"/>
      <point x="167" y="86" type="curve"/>
    </contour>
  </outline>
</glyph>
<glyph name="W" format="1">
  <advance width="513"/>
  <unicode hex="0057"/>
  <outline>
    <contour>
      <point x="259" y="593" type="line"/>
      <point x="260" y="457"/>
      <point x="263" y="368"/>
      <point x="267" y="274" type="curve" smooth="yes"/>
      <point x="279" y="0" type="line"/>
      <point x="446" y="0" type="line"/>
      <point x="519" y="709" type="line"/>
      <point x="396" y="709" type="line"/>
      <point x="381" y="418" type="line"/>
      <point x="376" y="326"/>
      <point x="373" y="236"/>
      <point x="369" y="115" type="curve"/>
      <point x="364" y="115" type="line"/>
      <point x="363" y="238"/>
      <point x="360" y="327"/>
      <point x="357" y="418" type="curve" smooth="yes"/>
      <point x="346" y="709" type="line"/>
      <point x="167" y="709" type="line"/>
      <point x="157" y="420" type="line"/>
      <point x="153" y="331"/>
      <point x="150" y="239"/>
      <point x="150" y="115" type="curve"/>
      <point x="146" y="115" type="line"/>
      <point x="141" y="235"/>
      <point x="137" y="328"/>
      <point x="132" y="420" type="curve" smooth="yes"/>
      <point x="117" y="709" type="line"/>
      <point x="-7" y="709" type="line"/>
      <point x="68" y="0" type="line"/>
      <point x="234" y="0" type="line"/>
      <point x="246" y="266" type="line"/>
      <point x="249" y="361"/>
      <point x="253" y="454"/>
      <point x="253" y="593" type="curve"/>
    </contour>
  </outline>
</glyph>
<glyph name="X" format="1">
  <advance width="315"/>
  <unicode hex="0058"/>
  <outline>
    <contour>
      <point x="158" y="421" type="line"/>
      <point x="155" y="421" type="line"/>
      <point x="120" y="709" type="line"/>
      <point x="-10" y="709" type="line"/>
      <point x="82" y="367" type="line"/>
      <point x="-11" y="0" type="line"/>
      <point x="117" y="0" type="line"/>
      <point x="155" y="283" type="line"/>
      <point x="158" y="283" type="line"/>
      <point x="197" y="0" type="line"/>
      <point x="324" y="0" type="line"/>
      <point x="231" y="367" type="line"/>
      <point x="324" y="709" type="line"/>
      <point x="194" y="709" type="line"/>
    </contour>
  </outline>
</glyph>
<glyph name="Y" format="1">
  <advance width="309"/>
  <unicode hex="0059"/>
  <outline>
    <contour>
      <point x="317" y="709" type="line"/>
      <point x="181" y="709" type="line"/>
      <point x="169" y="542" type="line"/>
      <point x="165" y="482"/>
      <point x="160" y="420"/>
      <point x="157" y="341" type="curve"/>
      <point x="155" y="341" type="line"/>
      <point x="151" y="419"/>
      <point x="147" y="478"/>
      <point x="142" y="539" type="curve" smooth="yes"/>
      <point x="128" y="709" type="line"/>
      <point x="-9" y="709" type="line"/>
      <point x="90" y="272" type="line"/>
      <point x="90" y="0" type="line"/>
      <point x="224" y="0" type="line"/>
      <point x="224" y="272" type="line"/>
    </contour>
  </outline>
</glyph>
<glyph name="Z" format="1">
  <advance width="250"/>
  <unicode hex="005A"/>
  <outline>
    <contour>
      <point x="3" y="0" type="line"/>
      <point x="246" y="0" type="line"/>
      <point x="246" y="95" type="line"/>
      <point x="126" y="95" type="line"/>
      <point x="242" y="632" type="line"/>
      <point x="242" y="709" type="line"/>
      <point x="11" y="709" type="line"/>
      <point x="11" y="614" type="line"/>
      <point x="125" y="614" type="line"/>
      <point x="3" y="73" type="line"/>
    </contour>
  </outline>
</glyph>
<glyph name="a" format="1">
  <advance width="339"/>
  <unicode hex="0061"/>
  <outline>
    <contour>
      <point x="330" y="0" type="line"/>
      <point x="330" y="5" type="line"/>
      <point x="321" y="11"/>
      <point x="318" y="39"/>
      <point x="318" y="74" type="curve" smooth="yes"/>
      <point x="318" y="349" type="line"/>
      <point x="318" y="508"/>
      <point x="260" y="544"/>
      <point x="172" y="544" type="curve" smooth="yes"/>
      <point x="56" y="544"/>
      <point x="27" y="462"/>
      <point x="28" y="386" type="curve"/>
      <point x="146" y="387" type="line"/>
      <point x="146" y="422"/>
      <point x="150" y="464"/>
      <point x="169" y="464" type="curve" smooth="yes"/>
      <point x="192" y="464"/>
      <point x="192" y="421"/>
      <point x="192" y="363" type="curve" smooth="yes"/>
      <point x="192" y="345" type="line"/>
      <point x="51" y="307"/>
      <point x="13" y="225"/>
      <point x="13" y="134" type="curve" smooth="yes"/>
      <point x="13" y="39"/>
      <point x="52" y="-12"/>
      <point x="124" y="-12" type="curve" smooth="yes"/>
      <point x="165" y="-12"/>
      <point x="184" y="11"/>
      <point x="194" y="21" type="curve"/>
      <point x="197" y="21" type="line"/>
      <point x="199" y="15"/>
      <point x="202" y="6"/>
      <point x="206" y="0" type="curve"/>
    </contour>
    <contour>
      <point x="192" y="110" type="line"/>
      <point x="187" y="93"/>
      <point x="179" y="80"/>
      <point x="167" y="80" type="curve" smooth="yes"/>
      <point x="152" y="80"/>
      <point x="143" y="103"/>
      <point x="143" y="148" type="curve" smooth="yes"/>
      <point x="143" y="194"/>
      <point x="155" y="248"/>
      <point x="192" y="266" type="curve"/>
    </contour>
  </outline>
</glyph>
<glyph name="b" format="1">
  <advance width="337"/>
  <unicode hex="0062"/>
  <outline>
    <contour>
      <point x="18" y="0" type="line"/>
      <point x="144" y="0" type="line"/>
      <point x="144" y="32" type="line"/>
      <point x="146" y="32" type="line"/>
      <point x="161" y="9"/>
      <point x="182" y="-12"/>
      <point x="211" y="-12" type="curve" smooth="yes"/>
      <point x="298" y="-12"/>
      <point x="321" y="114"/>
      <point x="321" y="266" type="curve" smooth="yes"/>
      <point x="321" y="451"/>
      <point x="287" y="544"/>
      <point x="211" y="544" type="curve" smooth="yes"/>
      <point x="179" y="544"/>
      <point x="161" y="521"/>
      <point x="146" y="501" type="curve"/>
      <point x="145" y="501" type="line"/>
      <point x="145" y="727" type="line"/>
      <point x="18" y="727" type="line"/>
    </contour>
    <contour>
      <point x="145" y="396" type="line"/>
      <point x="147" y="414"/>
      <point x="153" y="438"/>
      <point x="165" y="438" type="curve" smooth="yes"/>
      <point x="180" y="438"/>
      <point x="192" y="393"/>
      <point x="192" y="262" type="curve" smooth="yes"/>
      <point x="192" y="142"/>
      <point x="180" y="94"/>
      <point x="165" y="94" type="curve" smooth="yes"/>
      <point x="154" y="94"/>
      <point x="148" y="116"/>
      <point x="145" y="142" type="curve"/>
    </contour>
  </outline>
</glyph>
<glyph name="d" format="1">
  <advance width="337"/>
  <unicode hex="0064"/>
  <outline>
    <contour>
      <point x="193" y="32" type="line"/>
      <point x="192" y="0" type="line"/>
      <point x="319" y="0" type="line"/>
      <point x="319" y="727" type="line"/>
      <point x="192" y="727" type="line"/>
      <point x="192" y="504" type="line"/>
      <point x="191" y="504" type="line"/>
      <point x="175" y="522"/>
      <point x="158" y="544"/>
      <point x="126" y="544" type="curve" smooth="yes"/>
      <point x="50" y="544"/>
      <point x="15" y="452"/>
      <point x="15" y="266" type="curve" smooth="yes"/>
      <point x="15" y="86"/>
      <point x="50" y="-12"/>
      <point x="125" y="-12" type="curve" smooth="yes"/>
      <point x="155" y="-12"/>
      <point x="175" y="7"/>
      <point x="191" y="32" type="curve"/>
    </contour>
    <contour>
      <point x="172" y="94" type="line"/>
      <point x="160" y="94"/>
      <point x="144" y="132"/>
      <point x="145" y="262" type="curve" smooth="yes"/>
      <point x="145" y="393"/>
      <point x="157" y="438"/>
      <point x="172" y="438" type="curve" smooth="yes"/>
      <point x="183" y="438"/>
      <point x="190" y="414"/>
      <point x="192" y="396" type="curve"/>
      <point x="192" y="142" type="line"/>
      <point x="189" y="115"/>
      <point x="182" y="94"/>
      <point x="173" y="94" type="curve"/>
    </contour>
  </outline>
</glyph>
<glyph name="f" format="1">
  <advance width="170"/>
  <unicode hex="0066"/>
  <outline>
    <contour>
      <point x="185" y="732" type="line"/>
      <point x="182" y="733"/>
      <point x="176" y="735"/>
      <point x="168" y="737" type="curve" smooth="yes"/>
      <point x="159" y="738"/>
      <point x="148" y="739"/>
      <point x="135" y="739" type="curve" smooth="yes"/>
      <point x="98" y="739"/>
      <point x="70" y="727"/>
      <point x="51" y="708" type="curve" smooth="yes"/>
      <point x="26" y="681"/>
      <point x="16" y="635"/>
      <point x="16" y="566" type="curve" smooth="yes"/>
      <point x="16" y="532" type="line"/>
      <point x="-5" y="532" type="line"/>
      <point x="-5" y="446" type="line"/>
      <point x="16" y="446" type="line"/>
      <point x="16" y="0" type="line"/>
      <point x="143" y="0" type="line"/>
      <point x="143" y="446" type="line"/>
      <point x="166" y="446" type="line"/>
      <point x="166" y="532" type="line"/>
      <point x="143" y="532" type="line"/>
      <point x="143" y="574" type="line"/>
      <point x="143" y="610"/>
      <point x="145" y="630"/>
      <point x="152" y="640" type="curve" smooth="yes"/>
      <point x="156" y="645"/>
      <point x="160" y="648"/>
      <point x="164" y="648" type="curve" smooth="yes"/>
      <point x="167" y="648"/>
      <point x="171" y="647"/>
      <point x="173" y="647" type="curve" smooth="yes"/>
      <point x="175" y="646"/>
      <point x="178" y="645"/>
      <point x="180" y="644" type="curve"/>
    </contour>
  </outline>
</glyph>
<glyph name="g" format="1">
  <advance width="336"/>
  <unicode hex="0067"/>
  <outline>
    <contour>
      <point x="193" y="505" type="line"/>
      <point x="191" y="505" type="line"/>
      <point x="179" y="530"/>
      <point x="156" y="544"/>
      <point x="129" y="544" type="curve" smooth="yes"/>
      <point x="52" y="544"/>
      <point x="15" y="453"/>
      <point x="15" y="267" type="curve" smooth="yes"/>
      <point x="15" y="85"/>
      <point x="50" y="-12"/>
      <point x="124" y="-12" type="curve" smooth="yes"/>
      <point x="157" y="-12"/>
      <point x="177" y="1"/>
      <point x="190" y="18" type="curve"/>
      <point x="192" y="18" type="line"/>
      <point x="192" y="6" type="line"/>
      <point x="192" y="-69"/>
      <point x="191" y="-125"/>
      <point x="185" y="-151" type="curve" smooth="yes"/>
      <point x="182" y="-166"/>
      <point x="177" y="-175"/>
      <point x="170" y="-175" type="curve" smooth="yes"/>
      <point x="166" y="-175"/>
      <point x="158" y="-171"/>
      <point x="155" y="-159" type="curve" smooth="yes"/>
      <point x="152" y="-145"/>
      <point x="151" y="-129"/>
      <point x="150" y="-89" type="curve"/>
      <point x="27" y="-89" type="line"/>
      <point x="25" y="-151"/>
      <point x="39" y="-192"/>
      <point x="62" y="-219" type="curve" smooth="yes"/>
      <point x="90" y="-251"/>
      <point x="128" y="-261"/>
      <point x="168" y="-261" type="curve" smooth="yes"/>
      <point x="218" y="-261"/>
      <point x="256" y="-245"/>
      <point x="279" y="-208" type="curve" smooth="yes"/>
      <point x="308" y="-164"/>
      <point x="318" y="-104"/>
      <point x="318" y="-2" type="curve" smooth="yes"/>
      <point x="318" y="532" type="line"/>
      <point x="192" y="532" type="line"/>
    </contour>
    <contour>
      <point x="145" y="263" type="line"/>
      <point x="145" y="397"/>
      <point x="163" y="434"/>
      <point x="176" y="434" type="curve" smooth="yes"/>
      <point x="182" y="434"/>
      <point x="188" y="422"/>
      <point x="192" y="404" type="curve"/>
      <point x="192" y="127" type="line"/>
      <point x="191" y="111"/>
      <point x="185" y="98"/>
      <point x="175" y="98" type="curve" smooth="yes"/>
      <point x="155" y="98"/>
      <point x="145" y="149"/>
      <point x="145" y="262" type="curve"/>
    </contour>
  </outline>
</glyph>
<glyph name="i" format="1">
  <advance width="162"/>
  <unicode hex="0069"/>
  <outline>
    <contour>
      <point x="144" y="639" type="line"/>
      <point x="144" y="734" type="line"/>
      <point x="17" y="734" type="line"/>
      <point x="17" y="639" type="line"/>
    </contour>
    <contour>
      <point x="144" y="532" type="line"/>
      <point x="17" y="532" type="line"/>
      <point x="17" y="0" type="line"/>
      <point x="144" y="0" type="line"/>
    </contour>
  </outline>
</glyph>
<glyph name="m" format="1">
  <advance width="491"/>
  <unicode hex="006D"/>
  <outline>
    <contour>
      <point x="476" y="0" type="line"/>
      <point x="476" y="393" type="line"/>
      <point x="476" y="454"/>
      <point x="467" y="489"/>
      <point x="450" y="513" type="curve" smooth="yes"/>
      <point x="436" y="533"/>
      <point x="414" y="544"/>
      <point x="385" y="544" type="curve" smooth="yes"/>
      <point x="367" y="544"/>
      <point x="351" y="538"/>
      <point x="337" y="529" type="curve" smooth="yes"/>
      <point x="321" y="518"/>
      <point x="310" y="503"/>
      <point x="304" y="489" type="curve"/>
      <point x="301" y="489" type="line"/>
      <point x="297" y="503"/>
      <point x="289" y="516"/>
      <point x="281" y="525" type="curve" smooth="yes"/>
      <point x="268" y="537"/>
      <point x="253" y="544"/>
      <point x="234" y="544" type="curve" smooth="yes"/>
      <point x="217" y="544"/>
      <point x="200" y="539"/>
      <point x="185" y="530" type="curve" smooth="yes"/>
      <point x="170" y="521"/>
      <point x="157" y="507"/>
      <point x="147" y="491" type="curve"/>
      <point x="143" y="491" type="line"/>
      <point x="145" y="532" type="line"/>
      <point x="18" y="532" type="line"/>
      <point x="18" y="0" type="line"/>
      <point x="145" y="0" type="line"/>
      <point x="145" y="389" type="line"/>
      <point x="148" y="404"/>
      <point x="151" y="414"/>
      <point x="154" y="422" type="curve" smooth="yes"/>
      <point x="157" y="431"/>
      <point x="161" y="436"/>
      <point x="166" y="436" type="curve" smooth="yes"/>
      <point x="171" y="436"/>
      <point x="174" y="431"/>
      <point x="177" y="422" type="curve" smooth="yes"/>
      <point x="182" y="407"/>
      <point x="184" y="375"/>
      <point x="184" y="335" type="curve" smooth="yes"/>
      <point x="184" y="0" type="line"/>
      <point x="310" y="0" type="line"/>
      <point x="310" y="391" type="line"/>
      <point x="313" y="405"/>
      <point x="315" y="415"/>
      <point x="319" y="423" type="curve" smooth="yes"/>
      <point x="322" y="431"/>
      <point x="325" y="436"/>
      <point x="330" y="436" type="curve" smooth="yes"/>
      <point x="336" y="436"/>
      <point x="339" y="431"/>
      <point x="342" y="423" type="curve" smooth="yes"/>
      <point x="348" y="407"/>
      <point x="349" y="370"/>
      <point x="349" y="335" type="curve" smooth="yes"/>
      <point x="349" y="0" type="line"/>
    </contour>
  </outline>
</glyph>
<glyph name="p" format="1">
  <advance width="337"/>
  <unicode hex="0070"/>
  <outline>
    <contour>
      <point x="18" y="-248" type="line"/>
      <point x="145" y="-248" type="line"/>
      <point x="145" y="26" type="line"/>
      <point x="146" y="26" type="line"/>
      <point x="155" y="13"/>
      <point x="164" y="4"/>
      <point x="175" y="-2" type="curve" smooth="yes"/>
      <point x="187" y="-10"/>
      <point x="200" y="-12"/>
      <point x="211" y="-12" type="curve" smooth="yes"/>
      <point x="242" y="-12"/>
      <point x="267" y="6"/>
      <point x="285" y="41" type="curve" smooth="yes"/>
      <point x="305" y="79"/>
      <point x="321" y="154"/>
      <point x="321" y="266" type="curve" smooth="yes"/>
      <point x="321" y="383"/>
      <point x="305" y="454"/>
      <point x="281" y="496" type="curve" smooth="yes"/>
      <point x="262" y="531"/>
      <point x="238" y="544"/>
      <point x="210" y="544" type="curve" smooth="yes"/>
      <point x="194" y="544"/>
      <point x="182" y="539"/>
      <point x="171" y="531" type="curve" smooth="yes"/>
      <point x="159" y="522"/>
      <point x="151" y="509"/>
      <point x="145" y="500" type="curve"/>
      <point x="143" y="500" type="line"/>
      <point x="145" y="532" type="line"/>
      <point x="18" y="532" type="line"/>
    </contour>
    <contour>
      <point x="145" y="396" type="line"/>
      <point x="147" y="414"/>
      <point x="151" y="424"/>
      <point x="155" y="430" type="curve" smooth="yes"/>
      <point x="158" y="436"/>
      <point x="161" y="438"/>
      <point x="164" y="438" type="curve" smooth="yes"/>
      <point x="171" y="438"/>
      <point x="176" y="429"/>
      <point x="182" y="410" type="curve" smooth="yes"/>
      <point x="189" y="383"/>
      <point x="192" y="338"/>
      <point x="192" y="262" type="curve" smooth="yes"/>
      <point x="192" y="173"/>
      <point x="186" y="133"/>
      <point x="180" y="116" type="curve" smooth="yes"/>
      <point x="175" y="101"/>
      <point x="170" y="94"/>
      <point x="164" y="94" type="curve" smooth="yes"/>
      <point x="159" y="94"/>
      <point x="156" y="97"/>
      <point x="152" y="105" type="curve" smooth="yes"/>
      <point x="148" y="113"/>
      <point x="146" y="122"/>
      <point x="145" y="135" type="curve"/>
    </contour>
  </outline>
</glyph>
<glyph name="q" format="1">
  <advance width="337"/>
  <unicode hex="0071"/>
  <outline>
    <contour>
      <point x="319" y="-248" type="line"/>
      <point x="319" y="532" type="line"/>
      <point x="192" y="532" type="line"/>
      <point x="193" y="501" type="line"/>
      <point x="191" y="501" type="line"/>
      <point x="186" y="510"/>
      <point x="177" y="523"/>
      <point x="166" y="531" type="curve" smooth="yes"/>
      <point x="156" y="539"/>
      <point x="143" y="544"/>
      <point x="126" y="544" type="curve" smooth="yes"/>
      <point x="98" y="544"/>
      <point x="75" y="531"/>
      <point x="55" y="496" type="curve" smooth="yes"/>
      <point x="32" y="455"/>
      <point x="15" y="384"/>
      <point x="15" y="266" type="curve" smooth="yes"/>
      <point x="15" y="168"/>
      <point x="29" y="84"/>
      <point x="52" y="41" type="curve" smooth="yes"/>
      <point x="72" y="4"/>
      <point x="95" y="-12"/>
      <point x="125" y="-12" type="curve" smooth="yes"/>
      <point x="137" y="-12"/>
      <point x="150" y="-10"/>
      <point x="163" y="-1" type="curve" smooth="yes"/>
      <point x="173" y="5"/>
      <point x="181" y="14"/>
      <point x="191" y="27" type="curve"/>
      <point x="192" y="27" type="line"/>
      <point x="192" y="-248" type="line"/>
    </contour>
    <contour>
      <point x="192" y="135" type="line"/>
      <point x="190" y="122"/>
      <point x="189" y="113"/>
      <point x="185" y="106" type="curve" smooth="yes"/>
      <point x="181" y="97"/>
      <point x="177" y="94"/>
      <point x="172" y="94" type="curve" smooth="yes"/>
      <point x="167" y="94"/>
      <point x="162" y="100"/>
      <point x="156" y="117" type="curve" smooth="yes"/>
      <point x="151" y="135"/>
      <point x="145" y="173"/>
      <point x="145" y="263" type="curve" smooth="yes"/>
      <point x="145" y="321"/>
      <point x="147" y="378"/>
      <point x="153" y="405" type="curve" smooth="yes"/>
      <point x="159" y="429"/>
      <point x="165" y="438"/>
      <point x="172" y="438" type="curve" smooth="yes"/>
      <point x="176" y="438"/>
      <point x="179" y="436"/>
      <point x="182" y="430" type="curve" smooth="yes"/>
      <point x="185" y="424"/>
      <point x="189" y="414"/>
      <point x="192" y="396" type="curve"/>
    </contour>
  </outline>
</glyph>
<glyph name="r" format="1">
  <advance width="220"/>
  <unicode hex="0072"/>
  <outline>
    <contour>
      <point x="143" y="494" type="line"/>
      <point x="145" y="532" type="line"/>
      <point x="18" y="532" type="line"/>
      <point x="18" y="0" type="line"/>
      <point x="145" y="0" type="line"/>
      <point x="145" y="366" type="line"/>
      <point x="153" y="388"/>
      <point x="161" y="405"/>
      <point x="169" y="417" type="curve" smooth="yes"/>
      <point x="180" y="432"/>
      <point x="187" y="437"/>
      <point x="197" y="437" type="curve" smooth="yes"/>
      <point x="201" y="437"/>
      <point x="204" y="436"/>
      <point x="210" y="434" type="curve" smooth="yes"/>
      <point x="214" y="431"/>
      <point x="217" y="428"/>
      <point x="220" y="425" type="curve"/>
      <point x="227" y="535" type="line"/>
      <point x="222" y="538"/>
      <point x="218" y="540"/>
      <point x="213" y="542" type="curve" smooth="yes"/>
      <point x="209" y="543"/>
      <point x="203" y="544"/>
      <point x="197" y="544" type="curve" smooth="yes"/>
      <point x="183" y="544"/>
      <point x="173" y="537"/>
      <point x="165" y="529" type="curve" smooth="yes"/>
      <point x="157" y="519"/>
      <point x="151" y="506"/>
      <point x="146" y="494" type="curve"/>
    </contour>
  </outline>
</glyph>
<glyph name="t" format="1">
  <advance width="176"/>
  <unicode hex="0074"/>
  <outline>
    <contour>
      <point x="21" y="532" type="line"/>
      <point x="-1" y="532" type="line"/>
      <point x="-1" y="446" type="line"/>
      <point x="21" y="446" type="line"/>
      <point x="21" y="154" type="line"/>
      <point x="21" y="41"/>
      <point x="51" y="-12"/>
      <point x="126" y="-12" type="curve" smooth="yes"/>
      <point x="155" y="-12"/>
      <point x="165" y="-7"/>
      <point x="180" y="-1" type="curve"/>
      <point x="174" y="87" type="line"/>
      <point x="171" y="82"/>
      <point x="169" y="80"/>
      <point x="164" y="80" type="curve" smooth="yes"/>
      <point x="147" y="80"/>
      <point x="148" y="118"/>
      <point x="148" y="190" type="curve" smooth="yes"/>
      <point x="148" y="446" type="line"/>
      <point x="170" y="446" type="line"/>
      <point x="170" y="532" type="line"/>
      <point x="148" y="532" type="line"/>
      <point x="148" y="645" type="line"/>
      <point x="21" y="645" type="line"/>
    </contour>
  </outline>
</glyph>
<glyph name="u" format="1">
  <advance width="330"/>
  <unicode hex="0075"/>
  <outline>
    <contour>
      <point x="17" y="532" type="line"/>
      <point x="17" y="138" type="line"/>
      <point x="17" y="81"/>
      <point x="25" y="43"/>
      <point x="39" y="21" type="curve" smooth="yes"/>
      <point x="53" y="-1"/>
      <point x="76" y="-12"/>
      <point x="102" y="-12" type="curve" smooth="yes"/>
      <point x="125" y="-12"/>
      <point x="143" y="-5"/>
      <point x="155" y="8" type="curve" smooth="yes"/>
      <point x="167" y="20"/>
      <point x="177" y="37"/>
      <point x="182" y="49" type="curve"/>
      <point x="187" y="49" type="line"/>
      <point x="186" y="0" type="line"/>
      <point x="313" y="0" type="line"/>
      <point x="313" y="532" type="line"/>
      <point x="186" y="532" type="line"/>
      <point x="186" y="140" type="line"/>
      <point x="182" y="123"/>
      <point x="178" y="113"/>
      <point x="174" y="106" type="curve" smooth="yes"/>
      <point x="171" y="99"/>
      <point x="166" y="96"/>
      <point x="163" y="96" type="curve" smooth="yes"/>
      <point x="156" y="96"/>
      <point x="153" y="101"/>
      <point x="149" y="109" type="curve" smooth="yes"/>
      <point x="144" y="124"/>
      <point x="143" y="155"/>
      <point x="143" y="200" type="curve" smooth="yes"/>
      <point x="143" y="532" type="line"/>
    </contour>
  </outline>
</glyph>
<glyph name="x" format="1">
  <advance width="302"/>
  <unicode hex="0078"/>
  <outline>
    <contour>
      <point x="303" y="532" type="line"/>
      <point x="173" y="532" type="line"/>
      <point x="153" y="343" type="line"/>
      <point x="150" y="343" type="line"/>
      <point x="130" y="532" type="line"/>
      <point x="-1" y="532" type="line"/>
      <point x="-1" y="524" type="line"/>
      <point x="78" y="271" type="line"/>
      <point x="-4" y="6" type="line"/>
      <point x="-4" y="0" type="line"/>
      <point x="128" y="0" type="line"/>
      <point x="150" y="200" type="line"/>
      <point x="152" y="200" type="line"/>
      <point x="174" y="0" type="line"/>
      <point x="306" y="0" type="line"/>
      <point x="306" y="6" type="line"/>
      <point x="225" y="271" type="line"/>
      <point x="303" y="524" type="line"/>
    </contour>
  </outline>
</glyph>
<glyph name="y" format="1">
  <advance width="289"/>
  <unicode hex="0079"/>
  <outline>
    <contour>
      <point x="294" y="532" type="line"/>
      <point x="174" y="532" type="line"/>
      <point x="161" y="367" type="line"/>
      <point x="156" y="314"/>
      <point x="153" y="261"/>
      <point x="150" y="181" type="curve"/>
      <point x="145" y="181" type="line"/>
      <point x="143" y="256"/>
      <point x="137" y="313"/>
      <point x="132" y="365" type="curve" smooth="yes"/>
      <point x="116" y="532" type="line"/>
      <point x="-11" y="532" type="line"/>
      <point x="97" y="26" type="line"/>
      <point x="82" y="-77" type="line"/>
      <point x="78" y="-110"/>
      <point x="72" y="-133"/>
      <point x="66" y="-150" type="curve" smooth="yes"/>
      <point x="61" y="-165"/>
      <point x="54" y="-174"/>
      <point x="45" y="-174" type="curve" smooth="yes"/>
      <point x="41" y="-174"/>
      <point x="35" y="-172"/>
      <point x="31" y="-169" type="curve" smooth="yes"/>
      <point x="26" y="-165"/>
      <point x="21" y="-161"/>
      <point x="19" y="-157" type="curve"/>
      <point x="-7" y="-241" type="line"/>
      <point x="2" y="-247"/>
      <point x="13" y="-252"/>
      <point x="25" y="-255" type="curve" smooth="yes"/>
      <point x="35" y="-259"/>
      <point x="47" y="-261"/>
      <point x="60" y="-261" type="curve" smooth="yes"/>
      <point x="101" y="-261"/>
      <point x="129" y="-243"/>
      <point x="148" y="-218" type="curve" smooth="yes"/>
      <point x="170" y="-192"/>
      <point x="187" y="-135"/>
      <point x="196" y="-84" type="curve" smooth="yes"/>
    </contour>
  </outline>
</glyph>
<glyph name="z" format="1">
  <advance width="228"/>
  <unicode hex="007A"/>
  <outline>
    <contour>
      <point x="218" y="532" type="line"/>
      <point x="13" y="532" type="line"/>
      <point x="13" y="446" type="line"/>
      <point x="97" y="446" type="line"/>
      <point x="6" y="75" type="line"/>
      <point x="6" y="0" type="line"/>
      <point x="222" y="0" type="line"/>
      <point x="222" y="86" type="line"/>
      <point x="131" y="86" type="line"/>
      <point x="218" y="457" type="line"/>
    </contour>
  </outline>
</glyph>
<glyph name="braceright" format="1">
  <advance width="216"/>
  <unicode hex="007D"/>
  <outline>
    <contour>
      <point x="214" y="339" type="line"/>
      <point x="204" y="343"/>
      <point x="192" y="348"/>
      <point x="183" y="360" type="curve" smooth="yes"/>
      <point x="174" y="373"/>
      <point x="168" y="392"/>
      <point x="168" y="425" type="curve" smooth="yes"/>
      <point x="168" y="560" type="line"/>
      <point x="168" y="629"/>
      <point x="152" y="669"/>
      <point x="125" y="696" type="curve" smooth="yes"/>
      <point x="82" y="735"/>
      <point x="8" y="739"/>
      <point x="-19" y="739" type="curve"/>
      <point x="-19" y="644" type="line"/>
      <point x="1" y="644"/>
      <point x="16" y="638"/>
      <point x="26" y="621" type="curve" smooth="yes"/>
      <point x="36" y="604"/>
      <point x="41" y="574"/>
      <point x="41" y="529" type="curve" smooth="yes"/>
      <point x="41" y="430" type="line"/>
      <point x="41" y="379"/>
      <point x="54" y="345"/>
      <point x="76" y="323" type="curve" smooth="yes"/>
      <point x="95" y="305"/>
      <point x="121" y="297"/>
      <point x="149" y="294" type="curve"/>
      <point x="149" y="290" type="line"/>
      <point x="121" y="288"/>
      <point x="95" y="280"/>
      <point x="76" y="261" type="curve" smooth="yes"/>
      <point x="54" y="239"/>
      <point x="41" y="206"/>
      <point x="41" y="154" type="curve" smooth="yes"/>
      <point x="41" y="55" type="line"/>
      <point x="41" y="10"/>
      <point x="36" y="-20"/>
      <point x="26" y="-37" type="curve" smooth="yes"/>
      <point x="16" y="-54"/>
      <point x="1" y="-61"/>
      <point x="-19" y="-61" type="curve"/>
      <point x="-19" y="-155" type="line"/>
      <point x="8" y="-155"/>
      <point x="82" y="-151"/>
      <point x="125" y="-112" type="curve" smooth="yes"/>
      <point x="152" y="-85"/>
      <point x="168" y="-45"/>
      <point x="168" y="24" type="curve" smooth="yes"/>
      <point x="168" y="160" type="line"/>
      <point x="168" y="192"/>
      <point x="174" y="211"/>
      <point x="183" y="224" type="curve" smooth="yes"/>
      <point x="192" y="236"/>
      <point x="204" y="242"/>
      <point x="214" y="245" type="curve"/>
    </contour>
  </outline>
</glyph>
<glyph name="emdash" format="1">
  <advance width="498"/>
  <unicode hex="2014"/>
  <outline>
    <contour>
      <point x="15" y="310" type="line"/>
      <point x="15" y="188" type="line"/>
      <point x="483" y="188" type="line"/>
      <point x="483" y="310" type="line"/>
    </contour>
  </outline>
</glyph>
<glyph name="bullet" format="1">
  <advance width="232"/>
  <unicode hex="2022"/>
  <outline>
    <contour>
      <point x="116" y="452" type="line"/>
      <point x="54" y="452"/>
      <point x="5" y="402"/>
      <point x="5" y="341" type="curve" smooth="yes"/>
      <point x="5" y="280"/>
      <point x="54" y="230"/>
      <point x="116" y="230" type="curve" smooth="yes"/>
      <point x="177" y="230"/>
      <point x="226" y="280"/>
      <point x="226" y="341" type="curve" smooth="yes"/>
      <point x="226" y="402"/>
      <point x="177" y="452"/>
      <point x="117" y="452" type="curve"/>
    </contour>
  </outline>
</glyph>
<glyph name="trademark" format="1">
  <advance width="522"/>
  <unicode hex="2122"/>
  <outline>
    <contour>
      <point x="178" y="709" type="line"/>
      <point x="3" y="709" type="line"/>
      <point x="3" y="650" type="line"/>
      <point x="46" y="650" type="line"/>
      <point x="46" y="353" type="line"/>
      <point x="135" y="353" type="line"/>
      <point x="135" y="650" type="line"/>
      <point x="178" y="650" type="line"/>
    </contour>
    <contour>
      <point x="341" y="462" type="line"/>
      <point x="340" y="512"/>
      <point x="336" y="554"/>
      <point x="332" y="594" type="curve" smooth="yes"/>
      <point x="321" y="709" type="line"/>
      <point x="187" y="709" type="line"/>
      <point x="187" y="353" type="line"/>
      <point x="267" y="353" type="line"/>
      <point x="267" y="483" type="line"/>
      <point x="267" y="526"/>
      <point x="266" y="570"/>
      <point x="266" y="624" type="curve"/>
      <point x="269" y="624" type="line"/>
      <point x="272" y="570"/>
      <point x="276" y="526"/>
      <point x="280" y="483" type="curve" smooth="yes"/>
      <point x="292" y="353" type="line"/>
      <point x="385" y="353" type="line"/>
      <point x="398" y="483" type="line"/>
      <point x="403" y="526"/>
      <point x="408" y="570"/>
      <point x="411" y="624" type="curve"/>
      <point x="414" y="624" type="line"/>
      <point x="414" y="570"/>
      <point x="412" y="526"/>
      <point x="412" y="483" type="curve" smooth="yes"/>
      <point x="412" y="353" type="line"/>
      <point x="493" y="353" type="line"/>
      <point x="493" y="709" type="line"/>
      <point x="365" y="709" type="line"/>
      <point x="353" y="594" type="line"/>
      <point x="349" y="555"/>
      <point x="345" y="513"/>
      <point x="343" y="462" type="curve"/>
    </contour>
  </outline>
</glyph>
